<?xml version="1.0" encoding="UTF-8"?><svg
  id="uuid-3d62fcdf-f9c7-442f-9f1c-7c3a63d26d62"
  xmlns="http://www.w3.org/2000/svg"
  xmlns:xlink="http://www.w3.org/1999/xlink"
  viewBox="0 0 264.16 284.81"
>
  <defs>
    <style>
      .uuid-5ea66080-cd15-4863-bec5-5baffc853b94,
      .uuid-d0924c44-3ddf-423c-92cc-f23d90bf5b98 {
        fill: #fff;
      }
      .uuid-d0924c44-3ddf-423c-92cc-f23d90bf5b98 {
        font-family: EBGaramond-Bold, "EB Garamond";
        font-size: 14px;
        font-weight: 700;
      }
      .uuid-a8c8c60b-0d40-41a7-969e-633cdbeabc76 {
        fill: none;
      }
      .uuid-a7f5ea23-2800-46d1-a5f4-5092aaa40fbe {
        clip-path: url(#uuid-96f6168f-e7ac-49fb-8cdf-58d2e45cccee);
      }
      .uuid-c75af26f-9523-422a-96d0-68b0ff699802 {
        fill: url(#uuid-9cb9d00e-ee04-4ccd-a72a-10762f06d65e);
      }
      .uuid-f15354fe-1bcd-44f3-aec2-9194ec7499be {
        clip-path: url(#uuid-15891c03-62dd-412d-8ea9-5ab05d98307c);
      }
      .uuid-10e7e3bc-8e07-48af-9e76-4b31b0a8f752 {
        clip-path: url(#uuid-89dba388-363b-488d-afee-9b784bd3182f);
      }
      .uuid-89056b78-95d7-460c-8516-9ad8c22db374 {
        fill: url(#uuid-c63a1362-a6eb-42a7-ab62-b855fd5ced2d);
      }
    </style>
    <clipPath id="uuid-89dba388-363b-488d-afee-9b784bd3182f">
      <path
        class="uuid-a8c8c60b-0d40-41a7-969e-633cdbeabc76"
        d="M202.45,114.23c7.19,28.72-21.84,60.68-64.79,71.41-33.46,8.34-65.49,1.31-81.41-15.77,5.98,19.3,27.46,31.8,54.28,33.86h16.06c6.49-.48,13.15-1.53,19.87-3.21,42.95-10.73,71.95-42.68,64.79-71.41-1.58-6.38-4.77-12.04-9.31-16.88.19.62.38,1.27.5,2"
      />
    </clipPath>
    <linearGradient
      id="uuid-9cb9d00e-ee04-4ccd-a72a-10762f06d65e"
      x1="39.35"
      y1="415.17"
      x2="40.35"
      y2="415.17"
      gradientTransform="translate(-5762.22 61660.47) scale(148.14 -148.14)"
      gradientUnits="userSpaceOnUse"
    >
      <stop offset="0" stop-color="#897a2f" />
      <stop offset=".04" stop-color="#918030" />
      <stop offset=".11" stop-color="#a49232" />
      <stop offset=".2" stop-color="#c5b143" />
      <stop offset=".29" stop-color="#edd772" />
      <stop offset=".33" stop-color="#ffe98a" />
      <stop offset=".39" stop-color="#f2dc79" />
      <stop offset=".51" stop-color="#ceb94e" />
      <stop offset=".68" stop-color="#8f8030" />
      <stop offset=".7" stop-color="#897a2f" />
      <stop offset=".7" stop-color="#8b7b2f" />
      <stop offset=".77" stop-color="#b6a231" />
      <stop offset=".84" stop-color="#d6c15a" />
      <stop offset=".9" stop-color="#edd775" />
      <stop offset=".96" stop-color="#f9e381" />
      <stop offset="1" stop-color="#ffe98a" />
    </linearGradient>
    <clipPath id="uuid-15891c03-62dd-412d-8ea9-5ab05d98307c">
      <path
        class="uuid-a8c8c60b-0d40-41a7-969e-633cdbeabc76"
        d="M139.68,78.03c-8.97,0-18.4,1.13-27.95,3.51-37.78,9.44-64.79,35.3-65.86,60.94v3.12c.1,2.46.45,4.92,1.06,7.35,1.58,6.35,4.81,12.04,9.34,16.84-.19-.65-.38-1.31-.54-1.96-7.19-28.73,21.84-60.68,64.79-71.41,33.45-8.34,65.49-1.31,81.41,15.77-6.56-21.16-31.75-34.15-62.19-34.16h-.07Z"
      />
    </clipPath>
    <linearGradient
      id="uuid-c63a1362-a6eb-42a7-ab62-b855fd5ced2d"
      x1="39.35"
      y1="415.09"
      x2="40.35"
      y2="415.09"
      gradientTransform="translate(-5783.7 61591.42) scale(148.08 -148.08)"
      xlink:href="#uuid-9cb9d00e-ee04-4ccd-a72a-10762f06d65e"
    />
    <clipPath id="uuid-96f6168f-e7ac-49fb-8cdf-58d2e45cccee">
      <rect
        class="uuid-a8c8c60b-0d40-41a7-969e-633cdbeabc76"
        x="3.99"
        y="78.03"
        width="246.17"
        height="173.14"
      />
    </clipPath>
  </defs>
  <g class="uuid-10e7e3bc-8e07-48af-9e76-4b31b0a8f752">
    <rect
      class="uuid-c75af26f-9523-422a-96d0-68b0ff699802"
      x="47.65"
      y="68.3"
      width="179.37"
      height="179.37"
      transform="translate(-71.49 143.38) rotate(-45)"
    />
  </g>
  <g class="uuid-f15354fe-1bcd-44f3-aec2-9194ec7499be">
    <rect
      class="uuid-89056b78-95d7-460c-8516-9ad8c22db374"
      x="36.29"
      y="36.29"
      width="175.24"
      height="175.24"
      transform="translate(-51.33 123.92) rotate(-45)"
    />
  </g>
  <g class="uuid-a7f5ea23-2800-46d1-a5f4-5092aaa40fbe">
    <path
      class="uuid-5ea66080-cd15-4863-bec5-5baffc853b94"
      d="M29.79,162.03c-.42-1.08-.69-1.69-.81-1.96l-2.46-6.54c-1.54-3.88-3.23-7.96-5.11-12.19l-3.73-8.77c-.46-1.19-1.11-2.19-1.88-3.04-.81-.85-1.65-1.42-2.61-1.73-.58-.23-1-.46-1.23-.65-.23-.19-.35-.5-.35-.92,0-.58.62-.88,1.85-.88,1.65,0,2.96.08,3.88.27,1.19.12,2.31.19,3.34.19s2.31-.08,3.73-.19c1.19-.19,2.58-.27,4.15-.27.42,0,.81.08,1.23.23.42.15.61.38.61.65,0,.42-.11.69-.38.88-.27.19-.58.35-.92.5-.35.15-.58.27-.69.31-.58.23-1.04.69-1.39,1.35-.31.65-.5,1.42-.5,2.31,0,1.19.12,2.04.35,2.58l6.61,17.07c.11.08.19.08.27,0l6.19-16.11c.42-1,.62-2.11.62-3.35,0-1.08-.19-1.88-.58-2.54-.38-.62-1-1.08-1.88-1.39-.77-.23-1.31-.46-1.58-.65-.31-.19-.42-.5-.42-.92,0-.65.62-.96,1.85-.96.54,0,1.27.08,2.23.19,1.65.11,3.04.19,4.15.19s2.19-.08,3.35-.19c.81-.12,1.58-.19,2.23-.19,1.23,0,1.85.31,1.85.89,0,.42-.15.73-.42.96-.31.23-.81.46-1.5.69-.96.31-1.92,1-2.96,2.08-1.04,1.08-1.81,2.35-2.35,3.77l-6.88,16.88c-.54,1.12-1.12,2.5-1.77,4.11-.65,1.61-1.12,2.88-1.42,3.77-.11.31-.46,1.11-1.08,2.42-.58,1.31-1.08,2.23-1.42,2.69h-1.08c-.31.04-.65-.5-1.08-1.54"
    />
    <path
      class="uuid-5ea66080-cd15-4863-bec5-5baffc853b94"
      d="M68.36,136c2.65,0,4.69-.15,6.11-.46.54-.19.81-.92.81-2.23,0-1.65-.69-3.04-2.04-4.19-1.35-1.15-2.96-1.73-4.84-1.73-1.23,0-2.5.38-3.81,1.15-1.31.77-2.35,1.73-3.15,2.92-.81,1.19-1.19,2.35-1.19,3.46,0,.69.38,1.08,1.15,1.08h6.96ZM59.59,160.61c-2.46-1.65-4.42-3.92-5.81-6.84-1.38-2.92-2.08-6.27-2.08-10.04,0-3.42.81-6.58,2.42-9.5,1.62-2.92,3.81-5.23,6.54-7,2.73-1.73,5.69-2.61,8.88-2.61,3.65,0,6.69,1.08,9.07,3.27s3.58,4.92,3.58,8.23c0,1-.23,1.73-.65,2.23-.42.46-1.15.69-2.08.69h-18.3c-.81,0-1.39.23-1.73.69-.31.46-.5,1.31-.5,2.58,0,2.58.58,5,1.69,7.15,1.12,2.19,2.65,3.92,4.65,5.19,1.96,1.27,4.15,1.88,6.5,1.88,3.31,0,6.27-1.31,8.84-3.88.31-.46.62-.69.96-.69.54,0,.81.31.81.96,0,.88-.42,2-1.23,3.35-1.23,2-3.04,3.65-5.35,4.92-2.35,1.27-4.92,1.88-7.73,1.88-3.19,0-6.04-.81-8.5-2.46"
    />
    <path
      class="uuid-5ea66080-cd15-4863-bec5-5baffc853b94"
      d="M87.01,160.95c0-.42.15-.73.5-.96.31-.23.85-.46,1.54-.62,1.19-.23,2.04-.61,2.58-1.19.54-.58.81-1.27.81-2.15v-19.46c0-1.58-.23-2.88-.69-3.85-.46-.96-1.31-1.61-2.58-1.88-.23-.08-.46-.19-.65-.46-.19-.23-.31-.54-.31-.88,0-.58.31-1,.88-1.23,1.54-.42,3.23-1.04,5.08-1.85,1.85-.81,3.46-1.61,4.81-2.38.77-.46,1.31-.69,1.58-.69.42,0,.61.23.61.69l-.27,6.81c0,.23.08.35.19.35,1.54-1.96,3.23-3.54,5.08-4.77,1.85-1.23,3.65-1.85,5.42-1.85,1.54,0,2.73.31,3.54.92.81.61,1.23,1.42,1.23,2.42,0,1.11-.42,2.31-1.27,3.54-.85,1.23-1.77,1.85-2.77,1.85-.46,0-1.42-.31-2.85-.96-.23-.11-.65-.31-1.27-.58-.61-.27-1.15-.39-1.65-.39-1.69,0-3.11.58-4.23,1.77-1.12,1.19-1.69,3.19-1.69,6v16.57c0,.89.35,1.58,1.08,2.11.69.54,1.89,1.08,3.54,1.58.69.19,1.23.38,1.54.61.31.23.5.54.5.89,0,.69-.58,1.08-1.69,1.08-1.69,0-3.27-.08-4.69-.27-1.77-.11-3.11-.19-4.08-.19s-2.19.08-3.73.19c-1.23.19-2.69.27-4.35.27-1.15.04-1.73-.35-1.73-1.04"
    />
    <path
      class="uuid-5ea66080-cd15-4863-bec5-5baffc853b94"
      d="M124.66,115.27c-1.04-1.04-1.54-2.27-1.54-3.77s.5-2.81,1.54-3.85c1.04-1.04,2.27-1.54,3.77-1.54s2.85.5,3.88,1.54c1.08,1.04,1.58,2.31,1.58,3.85s-.54,2.73-1.58,3.77c-1.08,1.04-2.35,1.54-3.88,1.54s-2.77-.5-3.77-1.54M118.77,160.95c0-.65.61-1.15,1.85-1.5,1.46-.42,2.5-.85,3.08-1.27.58-.42.89-1.15.89-2.08v-19.11c0-3.77-1.35-5.88-4-6.27-.58-.08-.88-.5-.88-1.31,0-.69.27-1.08.81-1.15,3.85-.81,7.46-2.38,10.88-4.69.69-.42,1.19-.61,1.42-.61.46,0,.69.23.69.69,0,.35-.11,1.69-.35,4.08-.35,3.54-.54,6.27-.54,8.23v20.15c0,.88.31,1.58.92,2.08.62.5,1.65.92,3.04,1.27,1.23.35,1.85.85,1.85,1.5,0,.69-.54,1.08-1.58,1.08-1.54,0-2.96-.08-4.35-.27-1.65-.12-2.96-.19-4-.19s-2.27.08-3.81.19c-1.23.19-2.69.27-4.35.27-1.04,0-1.58-.39-1.58-1.08"
    />
    <path
      class="uuid-5ea66080-cd15-4863-bec5-5baffc853b94"
      d="M150.19,160.26c-1.73-1.85-2.62-4.5-2.62-8.04v-20.53c0-.46-.19-.81-.62-1s-1.15-.31-2.23-.31h-.69c-.35,0-.65-.23-.88-.69-.23-.46-.35-.96-.35-1.5,0-.19.08-.35.23-.54.15-.19.27-.31.38-.35,1.65-.96,3.35-2.15,5.11-3.61,1.77-1.46,3.27-2.85,4.5-4.15.08-.08.27-.27.62-.61.35-.35.73-.54,1.15-.54.88,0,1.31.42,1.23,1.31l-.54,4.34v.35c0,.54.19.89.54,1.12.35.19.88.31,1.58.31h10.27c.19,0,.35.19.54.62.19.42.27.81.27,1.23,0,.65-.08,1.27-.27,1.85-.19.58-.38.88-.61.88h-8.58c-1.46,0-2.42.15-2.88.46-.46.31-.65.96-.65,2.04v17.15c0,2.46.5,4.38,1.5,5.69,1,1.35,2.42,2,4.23,2,1.54,0,2.77-.12,3.65-.35.92-.23,1.77-.61,2.62-1.15l.46-.19c.46,0,.69.46.69,1.42,0,.42-.58,1.08-1.73,2-1.15.92-2.58,1.73-4.31,2.46-1.69.73-3.46,1.11-5.23,1.11-3.15-.04-5.65-.96-7.38-2.77"
    />
    <path
      class="uuid-5ea66080-cd15-4863-bec5-5baffc853b94"
      d="M189.26,156.34c.58-.58.92-1.65.96-3.19l.19-5.04v-.46c0-.81-.27-1.23-.81-1.23-.35,0-.85.15-1.5.46-2.58,1-4.42,2.04-5.54,3.08-1.08,1.08-1.65,2.27-1.65,3.61,0,1.46.38,2.61,1.19,3.42.81.81,1.73,1.19,2.77,1.19,1.69.04,3.12-.58,4.38-1.85M176.72,161.8c-1.19-.81-2.19-1.81-2.96-3-.77-1.19-1.15-2.38-1.15-3.58,0-1.88.54-3.42,1.58-4.61,1.08-1.19,2.77-2.27,5.11-3.27l8.58-3.61c1.19-.46,1.88-.89,2.12-1.23.23-.35.38-1.15.42-2.38l.19-5.38c.08-1.65-.35-3-1.19-4.04-.85-1.04-2.04-1.54-3.58-1.54-.81,0-1.65.15-2.54.46-.85.31-1.54.69-2.08,1.15-.46.46-.69,1.23-.69,2.31l.08,1.96c0,.46-.85,1.15-2.54,2s-3.04,1.27-4.04,1.27c-.35,0-.62-.12-.85-.35-.19-.23-.31-.5-.31-.81,0-1.96,1.23-3.96,3.73-6.11,2.08-1.85,4.42-3.35,7.07-4.54,2.65-1.19,4.92-1.81,6.81-1.81,2.46,0,4.5.85,6,2.54,1.54,1.69,2.27,3.85,2.23,6.5l-.42,20c-.08,1.31.19,2.35.81,3.19.58.81,1.35,1.23,2.23,1.23,1.42,0,2.46-.35,3.19-1.08.23-.23.46-.35.62-.35.31,0,.54.11.77.31.19.19.31.42.31.65,0,.65-.42,1.39-1.23,2.23-1,1-2.08,1.77-3.23,2.35-1.15.58-2.27.85-3.31.85-3,0-5.38-1.58-7.08-4.77h-.27c-1.96,1.69-3.77,2.92-5.5,3.65-1.69.73-3.46,1.12-5.31,1.12-1.15-.12-2.35-.54-3.58-1.31"
    />
    <path
      class="uuid-5ea66080-cd15-4863-bec5-5baffc853b94"
      d="M209.87,159.88c-.35-.65-.62-1.77-.85-3.42-.19-1.61-.31-3.19-.31-4.73,0-.58.46-.88,1.35-.88.31,0,.58.08.85.23s.46.35.58.58c.81,2.73,2.04,4.81,3.62,6.23,1.58,1.46,3.35,2.15,5.31,2.15,1.65,0,3-.54,4.08-1.65,1.08-1.08,1.58-2.38,1.58-3.92s-.5-2.85-1.54-3.92c-1.04-1.08-2.77-2.38-5.27-3.85-3.08-1.77-5.35-3.54-6.81-5.27-1.46-1.73-2.23-3.81-2.23-6.23,0-3.11,1.15-5.69,3.46-7.69,2.31-2,5.38-3,9.31-3,1.69,0,3.27.19,4.65.54,1.38.35,2.38.77,3.04,1.23.46.65.88,1.69,1.19,3.15.31,1.46.5,2.92.5,4.46,0,.23-.12.42-.35.54-.23.11-.5.19-.81.19-.42,0-.81-.12-1.19-.31-.38-.19-.62-.42-.65-.65-1.65-4.19-4-6.27-7.07-6.27-1.46,0-2.77.46-3.85,1.39-1.08.92-1.65,2.11-1.65,3.58,0,1.31.46,2.46,1.42,3.5.96,1.04,2.5,2.15,4.69,3.42,3.77,2.12,6.46,4.04,8,5.81,1.58,1.73,2.35,3.96,2.35,6.69,0,3.46-1.23,6.23-3.73,8.27-2.46,2.04-5.77,3.04-9.92,3.04-3.96-.08-7.23-1.11-9.73-3.19"
    />
  </g>
  <path
    class="uuid-5ea66080-cd15-4863-bec5-5baffc853b94"
    d="M36.57,226.96c-.04-.07-.09-.16-.13-.27-.05-.11-.08-.19-.11-.25l-.2-.46c-.03-.07-.12-.3-.28-.67-.22-.51-.5-1.12-.83-1.81-.08-.19-.18-.4-.29-.63-.11-.23-.23-.49-.35-.77-.1-.22-.21-.4-.31-.54-.11-.13-.24-.23-.4-.29-.09-.04-.16-.08-.2-.12-.04-.04-.06-.1-.06-.17,0-.11.11-.17.34-.17.09,0,.34.01.73.04.18.03.4.04.66.04s.5-.01.73-.04c.07,0,.19,0,.36-.02.16-.01.32-.02.48-.02.08,0,.16.01.23.04.07.03.1.08.1.14s-.02.11-.06.14c-.04.03-.08.05-.14.08s-.1.04-.13.05c-.21.09-.32.29-.32.6v.13c0,.14.02.25.06.32l.94,2.31h.04l.83-2.21c.06-.12.08-.27.08-.45,0-.35-.15-.57-.45-.69-.11-.04-.19-.07-.24-.1-.05-.03-.07-.09-.07-.16,0-.07.03-.11.1-.14.07-.03.14-.04.22-.04.19,0,.37,0,.56.03h.41c.16.01.48,0,.97-.03.22,0,.34.06.34.17,0,.07-.02.13-.06.17s-.11.08-.21.12c-.17.06-.32.16-.47.31-.15.15-.26.34-.36.55l-1.09,2.74c-.12.31-.27.65-.45,1.02-.21.51-.38.89-.52,1.13h-.32s-.09-.04-.13-.1Z"
  />
  <path
    class="uuid-5ea66080-cd15-4863-bec5-5baffc853b94"
    d="M41.5,226.57c-.4-.27-.72-.63-.94-1.1-.23-.47-.34-.99-.34-1.57s.14-1.11.41-1.6c.27-.49.64-.87,1.11-1.16.47-.28.98-.43,1.53-.43.39,0,.75.08,1.08.25.33.17.58.4.77.7.19.3.28.62.28.98,0,.19-.04.32-.1.41s-.18.13-.33.13h-2.8c-.13,0-.23.04-.29.11-.06.07-.09.2-.09.38,0,.54.17,1,.52,1.37.35.37.78.55,1.3.55.26,0,.5-.05.73-.15.22-.1.46-.24.7-.43.09-.07.16-.11.2-.11.09,0,.14.06.14.18s-.04.26-.11.42c-.15.39-.44.73-.88,1.02-.43.29-.94.43-1.53.43-.5,0-.94-.13-1.34-.4ZM42.99,222.6c.21,0,.38,0,.5-.01.12,0,.23-.03.32-.06.05-.02.08-.07.11-.14.03-.08.04-.16.04-.25,0-.24-.09-.45-.26-.61-.17-.16-.39-.25-.64-.25-.29,0-.55.12-.78.36-.23.24-.35.49-.34.76,0,.13.07.2.2.2h.84Z"
  />
  <path
    class="uuid-5ea66080-cd15-4863-bec5-5baffc853b94"
    d="M46.11,226.77c-.05-.03-.08-.08-.08-.15,0-.07.03-.13.08-.17s.13-.08.25-.1c.21-.07.34-.14.41-.21.07-.08.1-.18.1-.32v-3.22c0-.21-.03-.38-.09-.5-.06-.12-.17-.2-.33-.25-.12-.04-.18-.12-.18-.25s.06-.21.17-.24c.3-.07.63-.16.99-.29.36-.13.67-.25.92-.37.14-.1.25-.15.32-.15.08,0,.13.05.13.15l-.04,1.11c0,.08.02.13.06.13.24-.34.52-.62.84-.86s.63-.36.94-.36.53.06.68.17c.14.12.22.28.22.48,0,.22-.09.46-.26.71-.17.25-.36.37-.55.37-.12,0-.3-.07-.55-.2-.04-.02-.11-.05-.23-.1-.12-.05-.21-.08-.29-.08-.6,0-.9.44-.9,1.33v2.28c0,.18.06.31.17.41.11.09.3.18.57.25.21.06.31.15.31.28,0,.06-.02.1-.07.14s-.1.06-.17.06c-.3,0-.6-.01-.9-.04-.37-.02-.63-.03-.78-.03-.16,0-.4,0-.71.03-.25.03-.52.04-.81.04-.08,0-.15-.02-.2-.05Z"
  />
  <path
    class="uuid-5ea66080-cd15-4863-bec5-5baffc853b94"
    d="M51.88,226.77s-.07-.08-.07-.13c0-.14.08-.23.25-.28.25-.06.42-.12.52-.19.09-.07.14-.18.14-.33v-3.02c0-.31-.05-.53-.14-.67-.09-.14-.25-.22-.46-.25-.06,0-.1-.04-.13-.08s-.04-.1-.04-.17c0-.06.02-.11.05-.15s.07-.07.1-.08c.42-.07.79-.18,1.11-.31.32-.13.67-.29,1.06-.48.13-.07.22-.11.28-.11s.1.02.13.05c.03.03.05.07.05.12l-.06.52c-.08.71-.13,1.22-.13,1.54v3.09c0,.13.05.23.14.31.09.07.27.15.53.22.08.03.15.06.19.1.04.04.06.09.06.17,0,.12-.07.18-.21.18-.2,0-.48,0-.85-.03-.37-.02-.64-.03-.8-.03s-.41,0-.74.03c-.28.03-.56.04-.84.04-.06,0-.11-.02-.15-.05ZM52.81,219.55c-.21-.21-.32-.47-.32-.77,0-.32.11-.58.32-.8.21-.21.47-.32.77-.32.32,0,.59.11.8.32s.33.48.33.8c0,.3-.11.56-.33.77s-.49.32-.8.32c-.3,0-.56-.11-.77-.32Z"
  />
  <path
    class="uuid-5ea66080-cd15-4863-bec5-5baffc853b94"
    d="M57.34,226.51c-.31-.31-.47-.75-.47-1.33v-3.22c0-.08-.03-.14-.1-.18-.07-.04-.18-.06-.34-.07h-.18c-.06,0-.11-.05-.15-.15-.05-.1-.07-.2-.07-.29,0-.07.03-.11.08-.14.47-.17,1.15-.64,2.04-1.43.02-.02.05-.04.1-.08.05-.03.09-.06.13-.08.04-.02.08-.03.13-.03.09,0,.15.02.18.06.03.04.04.11.03.22l-.08.83v.06c0,.16.11.24.34.24h1.67s.06.03.08.1c.03.07.04.13.04.18,0,.14-.02.27-.06.38-.04.12-.08.17-.13.17h-1.3c-.21,0-.36.03-.44.08-.08.05-.12.14-.12.27v2.65c0,.42.08.74.24.95.16.21.38.32.66.32.21,0,.38-.02.5-.05.12-.03.21-.07.29-.11s.13-.06.15-.07c.04-.02.07-.03.08-.03.05,0,.08.03.11.08.03.05.04.12.04.2,0,.07-.1.17-.31.33-.21.15-.47.29-.79.41-.32.12-.64.18-.97.18-.61,0-1.07-.15-1.38-.46Z"
  />
  <path
    class="uuid-5ea66080-cd15-4863-bec5-5baffc853b94"
    d="M61.73,226.58c-.28-.26-.42-.56-.42-.92,0-.32.1-.58.29-.79.19-.21.49-.4.9-.58l1.25-.55c.19-.08.3-.16.34-.22s.06-.19.06-.36v-.8c.02-.27-.02-.48-.13-.63-.1-.15-.26-.22-.46-.22-.11,0-.23.03-.36.08-.13.05-.22.11-.29.17-.06.07-.08.16-.08.29,0,.07,0,.13.01.2,0,.07.01.14.01.2,0,.09-.16.21-.47.35-.31.14-.57.21-.78.21-.07,0-.14-.03-.18-.08-.05-.06-.07-.13-.07-.21,0-.15.05-.29.15-.43.1-.14.27-.31.5-.5.36-.3.77-.55,1.23-.76.46-.21.84-.31,1.15-.31.49,0,.89.16,1.19.48.3.32.44.75.43,1.28l-.07,2.83c0,.21.03.4.11.55s.19.22.31.22c.18,0,.33-.06.46-.18.03-.03.06-.04.08-.04.05,0,.09.02.12.05.03.03.05.07.05.11,0,.12-.08.27-.25.43-.35.35-.74.52-1.18.52-.27,0-.51-.06-.71-.19s-.4-.33-.59-.61h-.03c-.31.29-.59.49-.83.62-.25.12-.51.18-.79.18-.37,0-.7-.13-.98-.39ZM63.99,225.85c.06-.1.1-.22.1-.36l.04-1.01c0-.15-.05-.22-.14-.22-.05,0-.1.02-.17.06-.3.14-.51.28-.62.42-.12.14-.18.35-.18.63,0,.24.05.42.15.53.1.11.22.17.36.17.18,0,.33-.07.45-.21Z"
  />
  <path
    class="uuid-5ea66080-cd15-4863-bec5-5baffc853b94"
    d="M67.66,226.49c-.08-.13-.14-.34-.18-.64-.04-.29-.05-.61-.04-.96,0-.11.09-.17.28-.17.06,0,.13.02.18.06.06.04.09.09.11.15.2.45.41.8.64,1.04s.5.37.81.37c.23,0,.42-.07.56-.22s.21-.33.21-.53c0-.22-.08-.42-.25-.57-.17-.16-.41-.32-.73-.49-.5-.25-.88-.53-1.17-.84-.29-.31-.43-.7-.43-1.16,0-.54.21-.98.64-1.32s.97-.5,1.61-.5c.28,0,.55.03.82.1s.46.14.57.21c.07.09.14.27.18.53.05.26.07.54.07.85,0,.05-.03.08-.08.11-.05.03-.11.04-.17.04s-.13-.02-.2-.07c-.07-.05-.11-.09-.13-.14-.12-.36-.28-.64-.47-.82-.19-.18-.4-.27-.64-.27-.21,0-.4.07-.57.2-.16.14-.25.31-.25.53,0,.18.08.34.25.5.16.15.4.31.71.48.63.34,1.08.65,1.32.94.25.29.37.67.37,1.15,0,.62-.2,1.09-.61,1.43-.41.34-.99.5-1.74.5-.67,0-1.23-.16-1.68-.48Z"
  />
  <path
    class="uuid-5ea66080-cd15-4863-bec5-5baffc853b94"
    d="M75.77,226.76c-.06-.04-.09-.08-.09-.14,0-.11.11-.21.32-.28.19-.06.32-.12.41-.18s.13-.18.13-.35v-3.21c0-.48-.14-.74-.43-.78-.1-.02-.15-.1-.15-.25,0-.13.05-.21.14-.24.94-.23,1.64-.48,2.1-.74.02,0,.04-.02.08-.04.03-.02.06-.03.09-.03.08,0,.13.05.13.15l-.03.31c0,.07-.02.14-.03.23,0,.09-.01.19-.01.3,0,.09,0,.15.03.17h.03c.31-.3.63-.53.97-.7.34-.17.71-.25,1.11-.25.28,0,.54.1.79.3.25.2.43.46.55.78h.06c.6-.72,1.31-1.08,2.13-1.08.45,0,.82.18,1.11.55s.44.85.44,1.46v3.08c0,.17.04.28.13.35s.22.13.41.18c.19.07.28.16.28.28,0,.06-.02.1-.07.14-.05.04-.1.06-.17.06-.28,0-.55-.01-.8-.04-.3-.02-.53-.03-.69-.03s-.37,0-.63.03c-.21.03-.45.04-.73.04-.07,0-.12-.02-.17-.06-.05-.04-.07-.08-.07-.14,0-.14.09-.23.28-.28.13-.04.23-.09.29-.15.06-.06.09-.16.09-.3v-2.87c0-.34-.07-.61-.22-.82-.15-.21-.33-.32-.55-.33-.29,0-.56.11-.83.34-.13.12-.2.32-.2.59v3.01c0,.18.03.3.1.36.06.07.18.12.34.17.19.05.28.14.28.28,0,.06-.02.1-.07.14s-.1.06-.17.06c-.27,0-.52-.01-.74-.04-.28-.02-.49-.03-.64-.03-.16,0-.37,0-.63.03-.21.03-.45.04-.73.04-.06,0-.11-.02-.15-.06-.05-.04-.07-.08-.07-.14,0-.12.09-.21.27-.28.14-.05.24-.1.3-.15.06-.06.09-.15.09-.29v-2.87c0-.35-.07-.62-.21-.82-.14-.2-.33-.31-.56-.31-.28,0-.56.1-.84.31-.12.09-.18.28-.18.55v3.07c0,.16.03.28.08.35.06.08.16.14.31.18.18.07.27.16.27.28,0,.06-.02.1-.07.14s-.1.06-.15.06c-.27,0-.51-.01-.73-.04-.28-.02-.49-.03-.64-.03-.16,0-.39,0-.69.03-.23.03-.49.04-.78.04-.07,0-.13-.02-.19-.06Z"
  />
  <path
    class="uuid-5ea66080-cd15-4863-bec5-5baffc853b94"
    d="M87.51,226.58c-.28-.26-.42-.56-.42-.92,0-.32.1-.58.29-.79.19-.21.49-.4.9-.58l1.25-.55c.19-.08.3-.16.34-.22s.06-.19.06-.36v-.8c.02-.27-.02-.48-.13-.63-.1-.15-.26-.22-.46-.22-.11,0-.23.03-.36.08-.13.05-.22.11-.29.17-.06.07-.08.16-.08.29,0,.07,0,.13.01.2,0,.07.01.14.01.2,0,.09-.16.21-.47.35-.31.14-.57.21-.78.21-.07,0-.14-.03-.18-.08-.05-.06-.07-.13-.07-.21,0-.15.05-.29.15-.43.1-.14.27-.31.5-.5.36-.3.77-.55,1.23-.76.46-.21.84-.31,1.15-.31.49,0,.89.16,1.19.48.3.32.44.75.43,1.28l-.07,2.83c0,.21.03.4.11.55s.19.22.31.22c.18,0,.33-.06.46-.18.03-.03.06-.04.08-.04.05,0,.09.02.12.05.03.03.05.07.05.11,0,.12-.08.27-.25.43-.35.35-.74.52-1.18.52-.27,0-.51-.06-.71-.19s-.4-.33-.59-.61h-.03c-.31.29-.59.49-.83.62-.25.12-.51.18-.79.18-.37,0-.7-.13-.98-.39ZM89.78,225.85c.06-.1.1-.22.1-.36l.04-1.01c0-.15-.05-.22-.14-.22-.05,0-.1.02-.17.06-.3.14-.51.28-.62.42-.12.14-.18.35-.18.63,0,.24.05.42.15.53.1.11.22.17.36.17.18,0,.33-.07.45-.21Z"
  />
  <path
    class="uuid-5ea66080-cd15-4863-bec5-5baffc853b94"
    d="M93.2,226.76c-.06-.04-.09-.08-.09-.14,0-.11.11-.21.32-.28.19-.06.32-.12.41-.18s.13-.18.13-.35v-3.21c0-.47-.14-.73-.43-.78-.1-.02-.15-.1-.15-.25,0-.13.05-.21.14-.24.33-.07.68-.18,1.06-.31.38-.13.7-.26.95-.39.12-.07.21-.11.25-.11.08,0,.13.06.13.17l-.03.28c-.03.34-.04.51-.04.52,0,.12,0,.19.03.21.35-.33.68-.57,1-.73.32-.16.69-.24,1.1-.24.5,0,.92.18,1.24.55.32.36.48.85.48,1.46v3.08c0,.17.04.28.13.35s.22.13.41.18c.19.07.28.16.28.28,0,.06-.02.1-.07.14-.05.04-.1.06-.17.06-.28,0-.55-.01-.8-.04-.3-.02-.53-.03-.69-.03s-.39,0-.69.03c-.23.03-.49.04-.78.04-.07,0-.12-.02-.17-.06-.05-.04-.07-.08-.07-.14,0-.12.09-.21.28-.28.18-.06.3-.12.38-.18s.11-.18.11-.35v-2.79c0-.35-.08-.63-.24-.83-.16-.2-.38-.31-.66-.32-.2,0-.37.03-.53.09-.16.06-.33.15-.5.27-.08.07-.11.15-.11.27v3.3c0,.17.04.28.11.34.07.06.21.12.39.19s.28.16.28.28c0,.06-.02.1-.07.14-.05.04-.1.06-.17.06-.28,0-.53-.01-.76-.04-.3-.02-.52-.03-.67-.03-.16,0-.4,0-.71.03-.25.03-.52.04-.81.04-.07,0-.13-.02-.19-.06Z"
  />
  <path
    class="uuid-5ea66080-cd15-4863-bec5-5baffc853b94"
    d="M101.57,226.58c-.28-.26-.42-.56-.42-.92,0-.32.1-.58.29-.79.19-.21.49-.4.9-.58l1.25-.55c.19-.08.3-.16.34-.22s.06-.19.06-.36v-.8c.02-.27-.02-.48-.13-.63-.1-.15-.26-.22-.46-.22-.11,0-.23.03-.36.08-.13.05-.22.11-.29.17-.06.07-.08.16-.08.29,0,.07,0,.13.01.2,0,.07.01.14.01.2,0,.09-.16.21-.47.35-.31.14-.57.21-.78.21-.07,0-.14-.03-.18-.08-.05-.06-.07-.13-.07-.21,0-.15.05-.29.15-.43.1-.14.27-.31.5-.5.36-.3.77-.55,1.23-.76.46-.21.84-.31,1.15-.31.49,0,.89.16,1.19.48.3.32.44.75.43,1.28l-.07,2.83c0,.21.03.4.11.55s.19.22.31.22c.18,0,.33-.06.46-.18.03-.03.06-.04.08-.04.05,0,.09.02.12.05.03.03.05.07.05.11,0,.12-.08.27-.25.43-.35.35-.74.52-1.18.52-.27,0-.51-.06-.71-.19s-.4-.33-.59-.61h-.03c-.31.29-.59.49-.83.62-.25.12-.51.18-.79.18-.37,0-.7-.13-.98-.39ZM103.84,225.85c.06-.1.1-.22.1-.36l.04-1.01c0-.15-.05-.22-.14-.22-.05,0-.1.02-.17.06-.3.14-.51.28-.62.42-.12.14-.18.35-.18.63,0,.24.05.42.15.53.1.11.22.17.36.17.18,0,.33-.07.45-.21Z"
  />
  <path
    class="uuid-5ea66080-cd15-4863-bec5-5baffc853b94"
    d="M113.89,221.13c.04.06.06.13.06.22,0,.07-.02.15-.06.25-.04.1-.08.18-.13.26-.06.07-.12.1-.18.1h-.38c-.23,0-.4.04-.49.11-.04.05-.06.11-.06.19,0,.08,0,.24,0,.47,0,.49-.12.93-.37,1.34-.25.41-.58.74-1,.99s-.87.37-1.36.37c-.29,0-.6-.06-.94-.18-.08.06-.15.12-.2.19-.05.07-.08.13-.08.19,0,.15.14.26.42.34.28.07.8.14,1.57.2,1.01.08,1.74.23,2.2.46.46.23.69.57.69,1.01,0,.5-.18,1-.55,1.5-.36.5-.83.9-1.41,1.22-.57.32-1.15.48-1.73.48-.91,0-1.61-.14-2.13-.43-.51-.29-.77-.67-.77-1.17,0-.3.04-.53.1-.69s.22-.33.44-.5c.15-.1.31-.22.48-.34s.28-.22.35-.27c-.66-.26-.99-.69-.99-1.27,0-.21.13-.39.38-.55.4-.3.65-.5.74-.59-.35-.21-.62-.49-.83-.82s-.31-.69-.31-1.08c0-.46.13-.87.39-1.23.26-.36.61-.65,1.04-.85s.9-.31,1.39-.31c.28,0,.63.05,1.06.15.26.06.46.09.6.11.39.08.77.11,1.12.11.12,0,.28,0,.46-.03h.31c.07-.01.12.01.16.07ZM111.73,228.17c-.11-.09-.29-.17-.55-.23-.26-.06-.63-.12-1.11-.17-.28-.02-.61-.07-.99-.14-.27.17-.47.35-.61.53s-.2.4-.2.63c0,.38.16.7.48.95s.72.38,1.22.38c.65,0,1.11-.13,1.37-.38.18-.17.31-.36.41-.57.1-.21.15-.42.15-.64,0-.15-.05-.27-.16-.36ZM110.78,224.32c.18-.33.27-.76.27-1.32,0-.51-.1-.93-.29-1.25s-.44-.48-.73-.48c-.27,0-.5.16-.69.48-.19.32-.29.72-.29,1.2,0,.51.1.95.3,1.31.2.36.45.54.73.54s.52-.16.7-.49Z"
  />
  <path
    class="uuid-5ea66080-cd15-4863-bec5-5baffc853b94"
    d="M115.37,226.57c-.4-.27-.72-.63-.94-1.1-.23-.47-.34-.99-.34-1.57s.14-1.11.41-1.6c.27-.49.64-.87,1.11-1.16.47-.28.98-.43,1.53-.43.39,0,.75.08,1.08.25.33.17.58.4.77.7.19.3.28.62.28.98,0,.19-.04.32-.1.41s-.18.13-.33.13h-2.8c-.13,0-.23.04-.29.11-.06.07-.09.2-.09.38,0,.54.17,1,.52,1.37.35.37.78.55,1.3.55.26,0,.5-.05.73-.15.22-.1.46-.24.7-.43.09-.07.16-.11.2-.11.09,0,.14.06.14.18s-.04.26-.11.42c-.15.39-.44.73-.88,1.02-.43.29-.94.43-1.53.43-.5,0-.94-.13-1.34-.4ZM116.87,222.6c.21,0,.38,0,.5-.01.12,0,.23-.03.32-.06.05-.02.08-.07.11-.14.03-.08.04-.16.04-.25,0-.24-.09-.45-.26-.61-.17-.16-.39-.25-.64-.25-.29,0-.55.12-.78.36-.23.24-.35.49-.34.76,0,.13.07.2.2.2h.84Z"
  />
  <path
    class="uuid-5ea66080-cd15-4863-bec5-5baffc853b94"
    d="M127.06,225.95c.06,0,.09,0,.11.03s.03.06.03.11c0,.07-.03.15-.08.24-.06.08-.11.13-.15.13-.7.08-1.41.24-2.13.5-.11.06-.19.08-.24.08-.03,0-.07-.03-.12-.09s-.08-.11-.08-.15c.05-.33.07-.57.07-.74v-.08c-.2.3-.46.54-.79.72-.33.18-.68.27-1.06.27-.5,0-.96-.13-1.38-.39-.42-.26-.74-.62-.97-1.06-.23-.45-.35-.94-.35-1.47,0-.62.14-1.19.42-1.69.28-.5.67-.89,1.18-1.18.51-.29,1.09-.43,1.74-.43.26,0,.55.04.87.13l.18.04s.06-.06.06-.18v-1.67c0-.34-.04-.58-.12-.72-.08-.14-.22-.24-.43-.29-.11-.03-.17-.1-.17-.21,0-.12.05-.19.15-.21.34-.07.69-.17,1.06-.29.37-.12.67-.23.92-.33.19-.08.3-.13.34-.13.1,0,.15.06.15.17,0,.04-.02.15-.03.33-.01.18-.03.39-.04.64l-.07,7.06c0,.33.02.56.07.69.05.14.13.2.25.2l.55-.04h.06ZM123.88,225.9c.21-.08.37-.18.49-.32v-3.09c-.01-.16-.08-.32-.2-.49s-.28-.31-.48-.42c-.19-.11-.38-.17-.57-.17-.22,0-.43.09-.62.27-.19.18-.35.45-.46.79s-.17.74-.17,1.19c0,.49.07.91.2,1.26s.31.62.54.81.47.28.73.28c.16,0,.34-.04.55-.12Z"
  />
  <path
    class="uuid-5ea66080-cd15-4863-bec5-5baffc853b94"
    d="M131.28,226.49c-.08-.13-.14-.34-.18-.64-.04-.29-.05-.61-.04-.96,0-.11.09-.17.28-.17.07,0,.13.02.18.06.06.04.09.09.11.15.2.45.41.8.64,1.04s.5.37.81.37c.23,0,.42-.07.56-.22s.21-.33.21-.53c0-.22-.08-.42-.25-.57-.17-.16-.41-.32-.73-.49-.49-.25-.88-.53-1.17-.84-.28-.31-.43-.7-.43-1.16,0-.54.21-.98.64-1.32.43-.34.97-.5,1.61-.5.28,0,.55.03.82.1.27.07.46.14.57.21.08.09.14.27.18.53.05.26.07.54.07.85,0,.05-.03.08-.08.11-.05.03-.11.04-.18.04s-.13-.02-.2-.07c-.07-.05-.12-.09-.13-.14-.12-.36-.28-.64-.47-.82-.19-.18-.4-.27-.64-.27-.21,0-.4.07-.57.2-.16.14-.25.31-.25.53,0,.18.08.34.25.5.16.15.4.31.71.48.63.34,1.08.65,1.32.94s.37.67.37,1.15c0,.62-.2,1.09-.61,1.43-.41.34-.99.5-1.74.5-.67,0-1.23-.16-1.68-.48Z"
  />
  <path
    class="uuid-5ea66080-cd15-4863-bec5-5baffc853b94"
    d="M137.49,226.59c-.46-.25-.82-.6-1.08-1.04-.26-.44-.39-.95-.39-1.51s.15-1.14.44-1.65.69-.92,1.19-1.23c.5-.3,1.05-.45,1.66-.45.56,0,1.08.13,1.55.4.48.27.85.63,1.13,1.08.28.45.41.94.41,1.45,0,.62-.13,1.18-.39,1.68-.26.5-.65.91-1.16,1.2s-1.13.45-1.85.45c-.55,0-1.05-.13-1.51-.38ZM140.15,225.88c.2-.33.29-.96.29-1.9,0-.77-.12-1.4-.37-1.9-.25-.5-.57-.75-.97-.75-.29,0-.53.1-.73.29-.16.18-.27.43-.33.77-.06.34-.09.77-.09,1.3,0,.45.06.88.18,1.29.12.41.27.74.48.99.2.25.43.38.68.38.38,0,.67-.16.87-.48Z"
  />
  <path
    class="uuid-5ea66080-cd15-4863-bec5-5baffc853b94"
    d="M142.83,226.77c-.05-.03-.08-.08-.08-.15,0-.13.11-.22.32-.28.21-.08.35-.14.42-.2.08-.06.11-.17.11-.34v-6.73c0-.28-.04-.51-.12-.68s-.23-.28-.44-.33c-.09-.02-.14-.09-.14-.21s.04-.19.13-.21c.25-.05.56-.13.92-.25s.68-.23.96-.34l.29-.11c.07-.03.13-.04.18-.04.09,0,.14.06.14.17,0,.08-.01.21-.04.41s-.04.38-.05.56v7.74c0,.16.04.27.1.33.07.06.15.11.25.14.09.03.15.05.18.06.11.04.19.08.25.12.05.04.08.1.08.16s-.03.11-.08.15c-.05.03-.12.05-.2.05-.2,0-.46,0-.8-.03h-.73c-.15-.01-.37,0-.67.01-.25.03-.51.04-.78.04-.08,0-.15-.02-.2-.05Z"
  />
  <path
    class="uuid-5ea66080-cd15-4863-bec5-5baffc853b94"
    d="M151.16,226.93c0-.13.01-.28.04-.45l.03-.43c0-.08,0-.14-.03-.15-.26.32-.59.58-.99.78s-.8.31-1.23.31-.8-.19-1.1-.57c-.29-.38-.44-.85-.44-1.41v-2.62c0-.23-.04-.41-.13-.54-.08-.13-.23-.21-.43-.25-.06,0-.1-.04-.15-.08s-.06-.1-.06-.19c0-.15.07-.23.21-.24.61-.03,1.28-.14,2.03-.34.04,0,.09-.02.15-.04s.11-.02.15-.02c.13,0,.19.06.18.2-.07.38-.11.74-.11,1.08v2.69c0,.34.08.61.24.81.16.21.36.31.62.32.36,0,.65-.1.85-.31.07-.06.14-.17.2-.31.06-.14.08-.33.08-.55v-2.25c0-.23-.07-.42-.21-.55-.14-.13-.32-.21-.55-.23-.11,0-.2-.04-.25-.08s-.08-.12-.08-.22c0-.09.03-.16.1-.21.07-.05.14-.07.24-.07.71-.05,1.21-.08,1.51-.11s.58-.08.84-.14c.11-.03.17-.04.18-.04.14,0,.21.06.21.17,0,.03-.02.1-.06.21-.02.11-.04.28-.06.49-.02.21-.04.38-.04.49v3.25c0,.35.08.53.25.53h.39c.08.01.15.04.2.08s.07.11.07.18c0,.09-.02.16-.05.21-.03.05-.1.08-.19.08-.69.07-1.4.25-2.14.56-.03,0-.08.03-.16.06s-.15.04-.2.04c-.07,0-.11-.05-.11-.14Z"
  />
  <path
    class="uuid-5ea66080-cd15-4863-bec5-5baffc853b94"
    d="M155.82,226.51c-.31-.31-.47-.75-.47-1.33v-3.22c0-.08-.03-.14-.1-.18s-.18-.06-.34-.07h-.18c-.06,0-.11-.05-.15-.15-.05-.1-.07-.2-.07-.29,0-.07.03-.11.08-.14.47-.17,1.15-.64,2.04-1.43.02-.02.05-.04.1-.08.05-.03.09-.06.13-.08.04-.02.08-.03.13-.03.09,0,.15.02.18.06s.04.11.03.22l-.08.83v.06c0,.16.11.24.34.24h1.67s.06.03.08.1c.03.07.04.13.04.18,0,.14-.02.27-.06.38-.04.12-.08.17-.13.17h-1.3c-.21,0-.36.03-.44.08-.08.05-.12.14-.12.27v2.65c0,.42.08.74.24.95.16.21.38.32.66.32.21,0,.38-.02.5-.05.12-.03.21-.07.29-.11s.13-.06.15-.07c.04-.02.06-.03.08-.03.05,0,.08.03.11.08.03.05.04.12.04.2,0,.07-.1.17-.31.33-.21.15-.47.29-.79.41s-.64.18-.97.18c-.61,0-1.07-.15-1.38-.46Z"
  />
  <path
    class="uuid-5ea66080-cd15-4863-bec5-5baffc853b94"
    d="M159.75,226.77s-.07-.08-.07-.13c0-.14.08-.23.25-.28.25-.06.42-.12.52-.19.09-.07.14-.18.14-.33v-3.02c0-.31-.05-.53-.14-.67-.09-.14-.25-.22-.46-.25-.06,0-.1-.04-.13-.08-.03-.05-.04-.1-.04-.17,0-.06.02-.11.05-.15.03-.05.07-.07.1-.08.42-.07.79-.18,1.11-.31s.67-.29,1.06-.48c.13-.07.22-.11.28-.11s.1.02.13.05c.03.03.05.07.05.12l-.06.52c-.08.71-.13,1.22-.13,1.54v3.09c0,.13.05.23.14.31.09.07.27.15.53.22.08.03.15.06.19.1.04.04.06.09.06.17,0,.12-.07.18-.21.18-.2,0-.48,0-.85-.03-.37-.02-.64-.03-.8-.03s-.41,0-.74.03c-.28.03-.56.04-.84.04-.06,0-.11-.02-.15-.05ZM160.68,219.55c-.21-.21-.32-.47-.32-.77,0-.32.11-.58.32-.8s.47-.32.77-.32c.32,0,.59.11.81.32.22.21.33.48.33.8,0,.3-.11.56-.33.77-.22.21-.49.32-.81.32-.3,0-.55-.11-.77-.32Z"
  />
  <path
    class="uuid-5ea66080-cd15-4863-bec5-5baffc853b94"
    d="M165.32,226.59c-.46-.25-.82-.6-1.08-1.04-.26-.44-.39-.95-.39-1.51s.15-1.14.44-1.65.69-.92,1.19-1.23c.5-.3,1.05-.45,1.66-.45.56,0,1.08.13,1.55.4.48.27.85.63,1.13,1.08.28.45.41.94.41,1.45,0,.62-.13,1.18-.39,1.68-.26.5-.65.91-1.16,1.2s-1.13.45-1.85.45c-.55,0-1.05-.13-1.51-.38ZM167.98,225.88c.2-.33.29-.96.29-1.9,0-.77-.12-1.4-.37-1.9-.25-.5-.57-.75-.97-.75-.29,0-.53.1-.73.29-.16.18-.27.43-.33.77-.06.34-.09.77-.09,1.3,0,.45.06.88.18,1.29.12.41.27.74.48.99.2.25.43.38.68.38.38,0,.67-.16.87-.48Z"
  />
  <path
    class="uuid-5ea66080-cd15-4863-bec5-5baffc853b94"
    d="M170.94,226.76c-.06-.04-.09-.08-.09-.14,0-.11.11-.21.32-.28.19-.06.32-.12.41-.18s.13-.18.13-.35v-3.21c0-.47-.15-.73-.43-.78-.1-.02-.15-.1-.15-.25,0-.13.05-.21.14-.24.33-.07.68-.18,1.06-.31s.7-.26.95-.39c.12-.07.21-.11.25-.11.08,0,.13.06.13.17l-.03.28c-.03.34-.04.51-.04.52,0,.12,0,.19.03.21.35-.33.68-.57,1-.73.32-.16.69-.24,1.1-.24.5,0,.92.18,1.24.55.32.36.48.85.48,1.46v3.08c0,.17.04.28.13.35s.22.13.41.18c.19.07.28.16.28.28,0,.06-.02.1-.07.14-.05.04-.1.06-.17.06-.28,0-.55-.01-.8-.04-.3-.02-.53-.03-.69-.03s-.39,0-.69.03c-.23.03-.5.04-.78.04-.07,0-.12-.02-.17-.06s-.07-.08-.07-.14c0-.12.09-.21.28-.28.18-.06.3-.12.38-.18.07-.07.11-.18.11-.35v-2.79c0-.35-.08-.63-.24-.83-.16-.2-.38-.31-.66-.32-.2,0-.37.03-.53.09-.16.06-.33.15-.5.27-.07.07-.11.15-.11.27v3.3c0,.17.04.28.11.34.08.06.21.12.39.19.19.07.28.16.28.28,0,.06-.02.1-.07.14-.05.04-.1.06-.17.06-.28,0-.53-.01-.76-.04-.3-.02-.52-.03-.67-.03-.16,0-.4,0-.71.03-.25.03-.52.04-.81.04-.07,0-.13-.02-.19-.06Z"
  />
  <path
    class="uuid-5ea66080-cd15-4863-bec5-5baffc853b94"
    d="M179.11,226.49c-.08-.13-.14-.34-.18-.64-.04-.29-.05-.61-.04-.96,0-.11.09-.17.28-.17.07,0,.13.02.18.06.06.04.09.09.11.15.2.45.41.8.64,1.04s.5.37.81.37c.23,0,.42-.07.56-.22s.21-.33.21-.53c0-.22-.08-.42-.25-.57-.17-.16-.41-.32-.73-.49-.49-.25-.88-.53-1.17-.84-.28-.31-.43-.7-.43-1.16,0-.54.21-.98.64-1.32.43-.34.97-.5,1.61-.5.28,0,.55.03.82.1.27.07.46.14.57.21.08.09.14.27.18.53.05.26.07.54.07.85,0,.05-.03.08-.08.11-.05.03-.11.04-.18.04s-.13-.02-.2-.07c-.07-.05-.12-.09-.13-.14-.12-.36-.28-.64-.47-.82-.19-.18-.4-.27-.64-.27-.21,0-.4.07-.57.2-.16.14-.25.31-.25.53,0,.18.08.34.25.5.16.15.4.31.71.48.63.34,1.08.65,1.32.94s.37.67.37,1.15c0,.62-.2,1.09-.61,1.43-.41.34-.99.5-1.74.5-.67,0-1.23-.16-1.68-.48Z"
  />
  <path
    class="uuid-5ea66080-cd15-4863-bec5-5baffc853b94"
    d="M183.93,229.01c-.07-.04-.1-.1-.1-.16s.02-.11.06-.13c.04-.02.12-.05.25-.09.38-.1.68-.26.89-.47s.32-.46.32-.76c0-.16-.05-.29-.16-.39s-.25-.18-.41-.22c-.18-.06-.32-.15-.43-.29-.11-.13-.17-.31-.17-.52,0-.23.1-.43.29-.6.2-.17.42-.25.67-.25.43,0,.77.13,1.03.4.26.27.39.61.39,1.04,0,.48-.12.92-.35,1.3s-.53.68-.9.9c-.36.21-.74.32-1.12.32-.1,0-.19-.02-.25-.06Z"
  />
  <path
    class="uuid-5ea66080-cd15-4863-bec5-5baffc853b94"
    d="M190.66,226.77s-.07-.08-.07-.13c0-.14.08-.23.25-.28.25-.06.42-.12.52-.19.09-.07.14-.18.14-.33v-3.02c0-.31-.05-.53-.14-.67-.09-.14-.25-.22-.46-.25-.06,0-.1-.04-.13-.08-.03-.05-.04-.1-.04-.17,0-.06.02-.11.05-.15.03-.05.07-.07.1-.08.42-.07.79-.18,1.11-.31s.67-.29,1.06-.48c.13-.07.22-.11.28-.11s.1.02.13.05c.03.03.05.07.05.12l-.06.52c-.08.71-.13,1.22-.13,1.54v3.09c0,.13.05.23.14.31.09.07.27.15.53.22.08.03.15.06.19.1.04.04.06.09.06.17,0,.12-.07.18-.21.18-.2,0-.48,0-.85-.03-.37-.02-.64-.03-.8-.03s-.41,0-.74.03c-.28.03-.56.04-.84.04-.06,0-.11-.02-.15-.05ZM191.59,219.55c-.21-.21-.32-.47-.32-.77,0-.32.11-.58.32-.8s.47-.32.77-.32c.32,0,.59.11.81.32.22.21.33.48.33.8,0,.3-.11.56-.33.77-.22.21-.49.32-.81.32-.3,0-.55-.11-.77-.32Z"
  />
  <path
    class="uuid-5ea66080-cd15-4863-bec5-5baffc853b94"
    d="M194.81,226.76c-.06-.04-.09-.08-.09-.14,0-.11.11-.21.32-.28.19-.06.32-.12.41-.18s.13-.18.13-.35v-3.21c0-.47-.15-.73-.43-.78-.1-.02-.15-.1-.15-.25,0-.13.05-.21.14-.24.33-.07.68-.18,1.06-.31s.7-.26.95-.39c.12-.07.21-.11.25-.11.08,0,.13.06.13.17l-.03.28c-.03.34-.04.51-.04.52,0,.12,0,.19.03.21.35-.33.68-.57,1-.73.32-.16.69-.24,1.1-.24.5,0,.92.18,1.24.55.32.36.48.85.48,1.46v3.08c0,.17.04.28.13.35s.22.13.41.18c.19.07.28.16.28.28,0,.06-.02.1-.07.14-.05.04-.1.06-.17.06-.28,0-.55-.01-.8-.04-.3-.02-.53-.03-.69-.03s-.39,0-.69.03c-.23.03-.5.04-.78.04-.07,0-.12-.02-.17-.06s-.07-.08-.07-.14c0-.12.09-.21.28-.28.18-.06.3-.12.38-.18.07-.07.11-.18.11-.35v-2.79c0-.35-.08-.63-.24-.83-.16-.2-.38-.31-.66-.32-.2,0-.37.03-.53.09-.16.06-.33.15-.5.27-.07.07-.11.15-.11.27v3.3c0,.17.04.28.11.34.08.06.21.12.39.19.19.07.28.16.28.28,0,.06-.02.1-.07.14-.05.04-.1.06-.17.06-.28,0-.53-.01-.76-.04-.3-.02-.52-.03-.67-.03-.16,0-.4,0-.71.03-.25.03-.52.04-.81.04-.07,0-.13-.02-.19-.06Z"
  />
  <path
    class="uuid-5ea66080-cd15-4863-bec5-5baffc853b94"
    d="M203.98,226.57c-.4-.27-.72-.63-.95-1.08s-.34-.97-.34-1.53c0-.6.14-1.14.41-1.63.28-.49.65-.88,1.13-1.17.48-.29,1-.43,1.58-.43.37,0,.73.07,1.06.2s.61.32.85.56c.08.08.13.17.13.25,0,.09-.09.23-.26.4-.17.17-.31.26-.41.26-.08,0-.16-.02-.22-.06-.06-.04-.15-.1-.26-.2-.24-.21-.49-.37-.73-.5-.25-.13-.46-.19-.64-.19-.36,0-.63.15-.81.45-.18.3-.27.77-.27,1.43,0,.69.16,1.23.48,1.62.32.39.76.59,1.34.59.27,0,.51-.04.71-.13s.42-.22.66-.42c.03-.02.07-.04.11-.08.05-.03.09-.05.13-.05.11,0,.17.08.17.22,0,.11-.04.24-.11.39-.1.21-.27.42-.51.66-.24.23-.53.43-.86.59s-.69.24-1.05.24c-.49,0-.93-.13-1.33-.4Z"
  />
  <path
    class="uuid-5ea66080-cd15-4863-bec5-5baffc853b94"
    d="M209.02,226.86c-.22-.22-.33-.48-.33-.79s.11-.59.33-.82c.22-.23.48-.34.79-.34.33,0,.6.11.83.34.22.22.34.5.34.83,0,.31-.11.57-.34.79-.22.22-.5.33-.83.33-.31,0-.57-.11-.79-.33Z"
  />

  <path
    class="uuid-5ea66080-cd15-4863-bec5-5baffc853b94"
    d="M97.78,244.57c-.4-.27-.72-.63-.94-1.1-.23-.47-.34-.99-.34-1.57s.14-1.11.41-1.6c.27-.49.64-.87,1.11-1.16.47-.28.98-.43,1.53-.43.39,0,.75.08,1.08.25.33.17.58.4.77.7.19.3.28.62.28.98,0,.19-.04.32-.1.41s-.18.13-.33.13h-2.8c-.13,0-.23.04-.29.11-.06.07-.09.2-.09.38,0,.54.17,1,.52,1.37.35.37.78.55,1.3.55.26,0,.5-.05.73-.15.22-.1.46-.24.7-.43.09-.07.16-.11.2-.11.09,0,.14.06.14.18s-.04.26-.11.42c-.15.39-.44.73-.88,1.02-.43.29-.94.43-1.53.43-.5,0-.94-.13-1.34-.4ZM99.27,240.6c.21,0,.38,0,.5-.01.12,0,.23-.03.32-.06.05-.02.08-.07.11-.14.03-.08.04-.16.04-.25,0-.24-.09-.45-.26-.61-.17-.16-.39-.25-.64-.25-.29,0-.55.12-.78.36-.23.24-.35.49-.34.76,0,.13.07.2.2.2h.84Z"
  />
  <path
    class="uuid-5ea66080-cd15-4863-bec5-5baffc853b94"
    d="M102.63,244.5c-.08-.13-.14-.34-.18-.64-.04-.29-.05-.61-.04-.96,0-.11.09-.17.28-.17.06,0,.13.02.18.06.06.04.09.09.11.15.2.45.41.8.64,1.04s.5.37.81.37c.23,0,.42-.07.56-.22s.21-.33.21-.53c0-.22-.08-.42-.25-.57-.17-.16-.41-.32-.73-.49-.5-.25-.88-.53-1.17-.84-.29-.31-.43-.7-.43-1.16,0-.54.21-.98.64-1.32s.97-.5,1.61-.5c.28,0,.55.03.82.1s.46.14.57.21c.07.09.14.27.18.53.05.26.07.54.07.85,0,.05-.03.08-.08.11-.05.03-.11.04-.17.04s-.13-.02-.2-.07c-.07-.05-.11-.09-.13-.14-.12-.36-.28-.64-.47-.82-.19-.18-.4-.27-.64-.27-.21,0-.4.07-.57.2-.16.14-.25.31-.25.53,0,.18.08.34.25.5.16.15.4.31.71.48.63.34,1.08.65,1.32.94.25.29.37.67.37,1.15,0,.62-.2,1.09-.61,1.43-.41.34-.99.5-1.74.5-.67,0-1.23-.16-1.68-.48Z"
  />
  <path
    class="uuid-5ea66080-cd15-4863-bec5-5baffc853b94"
    d="M108.73,244.51c-.31-.31-.47-.75-.47-1.33v-3.22c0-.08-.03-.14-.1-.18-.07-.04-.18-.06-.34-.07h-.18c-.06,0-.11-.05-.15-.15-.05-.1-.07-.2-.07-.29,0-.07.03-.11.08-.14.47-.17,1.15-.64,2.04-1.43.02-.02.05-.04.1-.08.05-.03.09-.06.13-.08.04-.02.08-.03.13-.03.09,0,.15.02.18.06.03.04.04.11.03.22l-.08.83v.06c0,.16.11.24.34.24h1.67s.06.03.08.1c.03.07.04.13.04.18,0,.14-.02.27-.06.38-.04.12-.08.17-.13.17h-1.3c-.21,0-.36.03-.44.08-.08.05-.12.14-.12.27v2.65c0,.42.08.74.24.95.16.21.38.32.66.32.21,0,.38-.02.5-.05.12-.03.21-.07.29-.11s.13-.06.15-.07c.04-.02.07-.03.08-.03.05,0,.08.03.11.08.03.05.04.12.04.2,0,.07-.1.17-.31.33-.21.15-.47.29-.79.41-.32.12-.64.18-.97.18-.61,0-1.07-.15-1.38-.46Z"
  />
  <path
    class="uuid-5ea66080-cd15-4863-bec5-5baffc853b94"
    d="M113.21,244.87c-.22-.22-.33-.48-.33-.79s.11-.59.33-.82c.22-.23.48-.34.79-.34.33,0,.6.11.83.34.22.22.34.5.34.83,0,.31-.11.57-.34.79-.22.22-.5.33-.83.33-.31,0-.57-.11-.79-.33Z"
  />
  <path
    class="uuid-5ea66080-cd15-4863-bec5-5baffc853b94"
    d="M125.18,244.82c-.1,0-.24,0-.44,0-.88-.04-1.63-.06-2.25-.06-.41,0-1.08.01-2,.04h-.29s-.09-.01-.17-.06c-.08-.05-.11-.1-.11-.16,0-.06.02-.12.05-.17.03-.05.07-.1.12-.13l2.04-2.27c.5-.56.88-1.11,1.11-1.65.24-.54.36-1.13.36-1.76,0-.4-.1-.73-.31-.99-.21-.26-.49-.39-.84-.39-.3,0-.59.08-.88.25-.29.17-.55.38-.78.63-.17.2-.32.29-.45.29s-.2-.11-.2-.34.14-.49.42-.83c.28-.34.65-.63,1.11-.88.46-.25.94-.38,1.44-.38.47,0,.87.11,1.21.32.34.21.6.49.78.85.18.36.27.75.27,1.18,0,.37-.11.8-.34,1.28-.23.48-.49.88-.78,1.21-.21.25-.53.57-.95.97-.42.39-.68.63-.77.73-.51.5-.77.75-.77.77,0,.04.07.07.21.08.3.04.72.06,1.26.06.47,0,.88-.02,1.25-.06.32-.03.57-.11.77-.24.2-.13.36-.33.49-.6.04-.07.09-.14.16-.21s.15-.1.23-.1c.07,0,.11.03.14.08.03.06.03.12.01.2-.14.39-.27.8-.4,1.22s-.19.7-.2.82c0,.09-.05.17-.12.23-.07.06-.13.09-.18.09-.03,0-.09,0-.19,0Z"
  />
  <path
    class="uuid-5ea66080-cd15-4863-bec5-5baffc853b94"
    d="M128.32,244.32c-.5-.43-.87-.99-1.11-1.67-.25-.68-.37-1.38-.37-2.11,0-.77.12-1.5.37-2.2.25-.7.63-1.28,1.15-1.73.52-.45,1.16-.68,1.93-.68.7,0,1.3.22,1.8.65.5.43.87.99,1.12,1.67.25.68.37,1.37.37,2.08,0,.76-.12,1.49-.37,2.2-.25.71-.63,1.29-1.15,1.75-.52.46-1.16.69-1.93.69-.71,0-1.31-.22-1.81-.65ZM131.28,243.28c.21-.71.31-1.61.31-2.69,0-.67-.06-1.32-.18-1.93s-.29-1.12-.52-1.5c-.23-.39-.5-.58-.82-.58-.42,0-.73.35-.92,1.05-.2.7-.29,1.6-.29,2.69s.13,2.01.39,2.82c.26.81.63,1.21,1.11,1.21.42,0,.73-.36.94-1.06Z"
  />
  <path
    class="uuid-5ea66080-cd15-4863-bec5-5baffc853b94"
    d="M135.73,244.32c-.49-.43-.87-.99-1.11-1.67-.25-.68-.37-1.38-.37-2.11,0-.77.12-1.5.37-2.2.25-.7.63-1.28,1.15-1.73.52-.45,1.16-.68,1.92-.68.7,0,1.3.22,1.8.65.5.43.87.99,1.12,1.67.25.68.37,1.37.37,2.08,0,.76-.12,1.49-.37,2.2-.25.71-.63,1.29-1.15,1.75-.52.46-1.16.69-1.92.69-.71,0-1.31-.22-1.81-.65ZM138.68,243.28c.21-.71.31-1.61.31-2.69,0-.67-.06-1.32-.18-1.93s-.3-1.12-.52-1.5c-.23-.39-.5-.58-.82-.58-.42,0-.73.35-.92,1.05-.2.7-.29,1.6-.29,2.69s.13,2.01.39,2.82c.26.81.63,1.21,1.11,1.21.42,0,.73-.36.94-1.06Z"
  />
  <path
    class="uuid-5ea66080-cd15-4863-bec5-5baffc853b94"
    d="M142.14,245.41c-.06-.05-.08-.1-.08-.15,0-.09.04-.17.11-.22.08-.06.17-.09.28-.1.48-.06.97-.28,1.49-.67.52-.39.98-.84,1.39-1.37.91-1.17,1.36-2.36,1.36-3.57,0-.41-.07-.82-.21-1.23-.14-.41-.32-.75-.55-1.02-.22-.27-.46-.4-.71-.4-.34,0-.61.13-.78.4-.18.27-.27.66-.27,1.17,0,.28.05.55.15.81.1.26.23.48.39.64s.33.25.51.25c.12,0,.23-.01.33-.04.1-.03.19-.06.27-.1.08-.03.15-.04.2-.04.1,0,.15.05.15.14,0,.08-.04.16-.11.25-.03.04-.13.15-.31.32-.13.12-.33.24-.59.36s-.5.18-.73.18c-.36,0-.7-.09-1.04-.27-.34-.18-.62-.43-.84-.76-.22-.32-.33-.68-.33-1.07,0-.41.15-.85.46-1.32.31-.47.72-.86,1.23-1.18s1.05-.48,1.62-.48c.53,0,1.03.15,1.48.45.46.3.82.7,1.09,1.19.27.5.41,1.02.41,1.57,0,.8-.2,1.57-.6,2.29-.4.72-.89,1.37-1.47,1.94-.31.29-.71.6-1.22.92-.5.33-1.01.6-1.53.82-.51.22-.94.33-1.29.33-.13,0-.22-.02-.28-.07Z"
  />
</svg>
