<svg xmlns="http://www.w3.org/2000/svg" xmlns:xlink="http://www.w3.org/1999/xlink" viewBox="0 0 643.4 327.66"><defs><linearGradient id="a" x1="202.5" x2="474.9" y1="-9.88" y2="262.52" gradientTransform="matrix(1 0 0 -1 0 330.06)" gradientUnits="userSpaceOnUse"><stop offset="0" stop-color="#8a7800"/><stop offset=".04" stop-color="#917f08"/><stop offset=".11" stop-color="#a3911e"/><stop offset=".2" stop-color="#c2ae41"/><stop offset=".29" stop-color="#ecd672"/><stop offset=".33" stop-color="#ffe989"/><stop offset=".39" stop-color="#f1db78"/><stop offset=".51" stop-color="#ccb74d"/><stop offset=".68" stop-color="#907e08"/><stop offset=".7" stop-color="#8a7800"/><stop offset=".7" stop-color="#8c7a02"/><stop offset=".77" stop-color="#b5a132"/><stop offset=".84" stop-color="#d5c058"/><stop offset=".9" stop-color="#ecd773"/><stop offset=".96" stop-color="#fae483"/><stop offset="1" stop-color="#ffe989"/></linearGradient><linearGradient xlink:href="#a" id="b" x1="138.87" x2="411.17" y1="70.05" y2="342.35"/></defs><path d="M496.29 88.93c11.8 12.6 20.1 27.3 24.2 43.9 18.6 74.7-56.8 157.8-168.5 185.7-109.1 27.2-212.5-8.4-234.6-79.7 41.4 44.4 124.7 62.7 211.7 41 111.7-27.9 187.2-111 168.5-185.7-.3-1.9-.8-3.6-1.3-5.2Z" style="stroke-width:0;fill:url(#a)"/><path d="M93.19 194.83c-18.7-74.7 56.8-157.8 168.5-185.7 109.1-27.2 212.5 8.4 234.6 79.7-41.4-44.4-124.7-62.7-211.7-41-111.7 27.9-187.2 111-168.5 185.7.4 1.7.9 3.4 1.4 5.1-11.8-12.5-20.2-27.3-24.3-43.8Z" style="fill:url(#b);stroke-width:0"/><text style="fill:#fff;font-family:EBGaramond-Medium,&quot;EB Garamond&quot;;font-size:230px;font-weight:500" transform="translate(0 217.66)"><tspan x="0" y="0" style="letter-spacing:-.02em">v</tspan><tspan x="99.36" y="0">eritas</tspan></text></svg>