<?xml version="1.0" encoding="UTF-8"?><svg id="main" xmlns="http://www.w3.org/2000/svg" xmlns:xlink="http://www.w3.org/1999/xlink" viewBox="0 0 643.4 643.4"><defs><style>.cls-1{fill:url(#linear-gradient);}.cls-1,.cls-2{stroke-width:0px;}.cls-2{fill:url(#linear-gradient-2);}.cls-3{letter-spacing:-.013em;}.cls-3,.cls-4{fill:#fff;font-family:EBGaramond-Medium, 'EB Garamond';font-size:230px;font-weight:500;isolation:isolate;}</style><linearGradient id="linear-gradient" x1="202.51" y1="2983.75" x2="474.91" y2="2711.35" gradientTransform="translate(0 -2485.94)" gradientUnits="userSpaceOnUse"><stop offset="0" stop-color="#8a7800"/><stop offset=".04" stop-color="#917f08"/><stop offset=".11" stop-color="#a3911e"/><stop offset=".2" stop-color="#c2ae41"/><stop offset=".29" stop-color="#ecd672"/><stop offset=".33" stop-color="#ffe989"/><stop offset=".39" stop-color="#f1db78"/><stop offset=".51" stop-color="#ccb74d"/><stop offset=".68" stop-color="#907e08"/><stop offset=".7" stop-color="#8a7800"/><stop offset=".7" stop-color="#8c7a02"/><stop offset=".77" stop-color="#b5a132"/><stop offset=".84" stop-color="#d5c058"/><stop offset=".9" stop-color="#ecd773"/><stop offset=".96" stop-color="#fae483"/><stop offset="1" stop-color="#ffe989"/></linearGradient><linearGradient id="linear-gradient-2" x1="138.881" y1="2903.821" x2="411.181" y2="2631.521" gradientTransform="translate(0 -2485.94)" gradientUnits="userSpaceOnUse"><stop offset="0" stop-color="#8a7800"/><stop offset=".04" stop-color="#917f08"/><stop offset=".11" stop-color="#a3911e"/><stop offset=".2" stop-color="#c2ae41"/><stop offset=".29" stop-color="#ecd672"/><stop offset=".33" stop-color="#ffe989"/><stop offset=".39" stop-color="#f1db78"/><stop offset=".51" stop-color="#ccb74d"/><stop offset=".68" stop-color="#907e08"/><stop offset=".7" stop-color="#8a7800"/><stop offset=".7" stop-color="#8c7a02"/><stop offset=".77" stop-color="#b5a132"/><stop offset=".84" stop-color="#d5c058"/><stop offset=".9" stop-color="#ecd773"/><stop offset=".96" stop-color="#fae483"/><stop offset="1" stop-color="#ffe989"/></linearGradient></defs><path class="cls-1" d="m496.3,246.8c11.8,12.6,20.1,27.3,24.2,43.9,18.6,74.7-56.8,157.8-168.5,185.7-109.1,27.2-212.5-8.4-234.6-79.7,41.4,44.4,124.7,62.7,211.7,41,111.7-27.9,187.2-111,168.5-185.7-.3-1.9-.8-3.6-1.3-5.2h0Z"/><path class="cls-2" d="m93.2,352.7c-18.7-74.7,56.8-157.8,168.5-185.7,109.1-27.2,212.5,8.4,234.6,79.7-41.4-44.4-124.7-62.7-211.7-41-111.7,27.9-187.2,111-168.5,185.7.4,1.7.9,3.4,1.4,5.1-11.8-12.5-20.2-27.3-24.3-43.8h0Z"/><text class="cls-3" transform="translate(5.36 375.53)"><tspan x="0" y="0">v</tspan></text><text class="cls-4" transform="translate(104.721 375.53)"><tspan x="0" y="0">eritas</tspan></text></svg>